<mxfile host="app.diagrams.net" agent="Mozilla/5.0 (Windows NT 10.0; Win64; x64) AppleWebKit/537.36 (KHTML, like Gecko) Chrome/134.0.0.0 Safari/537.36 OPR/119.0.0.0" version="27.2.0">
  <diagram name="Página-1" id="SxHLXe966ZG-lpkNiP5L">
    <mxGraphModel dx="2249" dy="587" grid="1" gridSize="10" guides="1" tooltips="1" connect="1" arrows="1" fold="1" page="1" pageScale="1" pageWidth="827" pageHeight="1169" math="0" shadow="0">
      <root>
        <mxCell id="0" />
        <mxCell id="1" parent="0" />
        <mxCell id="J7Bs5bswWB7c_GY-_gEm-17" value="" style="edgeStyle=orthogonalEdgeStyle;rounded=0;orthogonalLoop=1;jettySize=auto;html=1;" edge="1" parent="1" source="J7Bs5bswWB7c_GY-_gEm-4" target="J7Bs5bswWB7c_GY-_gEm-6">
          <mxGeometry relative="1" as="geometry" />
        </mxCell>
        <mxCell id="J7Bs5bswWB7c_GY-_gEm-4" value="" style="verticalLabelPosition=bottom;verticalAlign=top;html=1;shape=mxgraph.flowchart.on-page_reference;" vertex="1" parent="1">
          <mxGeometry x="100" y="50" width="60" height="60" as="geometry" />
        </mxCell>
        <mxCell id="J7Bs5bswWB7c_GY-_gEm-16" value="" style="edgeStyle=orthogonalEdgeStyle;rounded=0;orthogonalLoop=1;jettySize=auto;html=1;" edge="1" parent="1" source="J7Bs5bswWB7c_GY-_gEm-5" target="J7Bs5bswWB7c_GY-_gEm-6">
          <mxGeometry relative="1" as="geometry" />
        </mxCell>
        <mxCell id="J7Bs5bswWB7c_GY-_gEm-5" value="Clave, Cantidad" style="shape=parallelogram;html=1;strokeWidth=2;perimeter=parallelogramPerimeter;whiteSpace=wrap;rounded=1;arcSize=12;size=0.23;" vertex="1" parent="1">
          <mxGeometry x="70" y="140" width="120" height="40" as="geometry" />
        </mxCell>
        <mxCell id="J7Bs5bswWB7c_GY-_gEm-14" value="" style="edgeStyle=orthogonalEdgeStyle;rounded=0;orthogonalLoop=1;jettySize=auto;html=1;" edge="1" parent="1" source="J7Bs5bswWB7c_GY-_gEm-6" target="J7Bs5bswWB7c_GY-_gEm-13">
          <mxGeometry relative="1" as="geometry" />
        </mxCell>
        <mxCell id="J7Bs5bswWB7c_GY-_gEm-15" value="NO" style="edgeLabel;html=1;align=center;verticalAlign=middle;resizable=0;points=[];" vertex="1" connectable="0" parent="J7Bs5bswWB7c_GY-_gEm-14">
          <mxGeometry x="-0.1822" y="-1" relative="1" as="geometry">
            <mxPoint as="offset" />
          </mxGeometry>
        </mxCell>
        <mxCell id="J7Bs5bswWB7c_GY-_gEm-19" value="" style="edgeStyle=orthogonalEdgeStyle;rounded=0;orthogonalLoop=1;jettySize=auto;html=1;" edge="1" parent="1" source="J7Bs5bswWB7c_GY-_gEm-6" target="J7Bs5bswWB7c_GY-_gEm-18">
          <mxGeometry relative="1" as="geometry" />
        </mxCell>
        <mxCell id="J7Bs5bswWB7c_GY-_gEm-41" value="SI" style="edgeLabel;html=1;align=center;verticalAlign=middle;resizable=0;points=[];" vertex="1" connectable="0" parent="J7Bs5bswWB7c_GY-_gEm-19">
          <mxGeometry x="-0.425" y="-2" relative="1" as="geometry">
            <mxPoint as="offset" />
          </mxGeometry>
        </mxCell>
        <mxCell id="J7Bs5bswWB7c_GY-_gEm-6" value="Existe clave" style="strokeWidth=2;html=1;shape=mxgraph.flowchart.decision;whiteSpace=wrap;" vertex="1" parent="1">
          <mxGeometry x="80" y="220" width="100" height="100" as="geometry" />
        </mxCell>
        <mxCell id="J7Bs5bswWB7c_GY-_gEm-13" value="Clave fuera de catálogo" style="strokeWidth=2;html=1;shape=mxgraph.flowchart.document2;whiteSpace=wrap;size=0.25;" vertex="1" parent="1">
          <mxGeometry x="-110" y="240" width="100" height="60" as="geometry" />
        </mxCell>
        <mxCell id="J7Bs5bswWB7c_GY-_gEm-18" value="Registrar receta como pendiente con claves y cantidades solicitada y existencias" style="rounded=1;whiteSpace=wrap;html=1;absoluteArcSize=1;arcSize=14;strokeWidth=2;" vertex="1" parent="1">
          <mxGeometry x="70" y="360" width="120" height="90" as="geometry" />
        </mxCell>
        <mxCell id="J7Bs5bswWB7c_GY-_gEm-20" style="edgeStyle=orthogonalEdgeStyle;rounded=0;orthogonalLoop=1;jettySize=auto;html=1;exitX=0.5;exitY=1;exitDx=0;exitDy=0;" edge="1" parent="1" source="J7Bs5bswWB7c_GY-_gEm-18" target="J7Bs5bswWB7c_GY-_gEm-18">
          <mxGeometry relative="1" as="geometry" />
        </mxCell>
        <mxCell id="J7Bs5bswWB7c_GY-_gEm-26" value="" style="edgeStyle=orthogonalEdgeStyle;rounded=0;orthogonalLoop=1;jettySize=auto;html=1;" edge="1" parent="1" source="J7Bs5bswWB7c_GY-_gEm-21" target="J7Bs5bswWB7c_GY-_gEm-25">
          <mxGeometry relative="1" as="geometry" />
        </mxCell>
        <mxCell id="J7Bs5bswWB7c_GY-_gEm-21" value="GUI de la receta subida con archivo" style="strokeWidth=2;html=1;shape=mxgraph.flowchart.document2;whiteSpace=wrap;size=0.25;" vertex="1" parent="1">
          <mxGeometry x="260" y="375" width="110" height="60" as="geometry" />
        </mxCell>
        <mxCell id="J7Bs5bswWB7c_GY-_gEm-22" style="edgeStyle=orthogonalEdgeStyle;rounded=0;orthogonalLoop=1;jettySize=auto;html=1;exitX=1;exitY=0.5;exitDx=0;exitDy=0;entryX=0;entryY=0.5;entryDx=0;entryDy=0;entryPerimeter=0;" edge="1" parent="1" source="J7Bs5bswWB7c_GY-_gEm-18" target="J7Bs5bswWB7c_GY-_gEm-21">
          <mxGeometry relative="1" as="geometry" />
        </mxCell>
        <mxCell id="J7Bs5bswWB7c_GY-_gEm-28" value="" style="edgeStyle=orthogonalEdgeStyle;rounded=0;orthogonalLoop=1;jettySize=auto;html=1;" edge="1" parent="1" source="J7Bs5bswWB7c_GY-_gEm-25" target="J7Bs5bswWB7c_GY-_gEm-27">
          <mxGeometry relative="1" as="geometry" />
        </mxCell>
        <mxCell id="J7Bs5bswWB7c_GY-_gEm-35" value="" style="edgeStyle=orthogonalEdgeStyle;rounded=0;orthogonalLoop=1;jettySize=auto;html=1;" edge="1" parent="1" source="J7Bs5bswWB7c_GY-_gEm-25" target="J7Bs5bswWB7c_GY-_gEm-34">
          <mxGeometry relative="1" as="geometry" />
        </mxCell>
        <mxCell id="J7Bs5bswWB7c_GY-_gEm-25" value="Guardar receta como pendiente" style="rounded=1;whiteSpace=wrap;html=1;strokeWidth=2;" vertex="1" parent="1">
          <mxGeometry x="445" y="375" width="120" height="60" as="geometry" />
        </mxCell>
        <mxCell id="J7Bs5bswWB7c_GY-_gEm-30" value="" style="edgeStyle=orthogonalEdgeStyle;rounded=0;orthogonalLoop=1;jettySize=auto;html=1;" edge="1" parent="1" source="J7Bs5bswWB7c_GY-_gEm-27" target="J7Bs5bswWB7c_GY-_gEm-29">
          <mxGeometry relative="1" as="geometry" />
        </mxCell>
        <mxCell id="J7Bs5bswWB7c_GY-_gEm-27" value="Vista de recetas con archivo pendientes por surtir" style="shape=document;whiteSpace=wrap;html=1;boundedLbl=1;rounded=1;strokeWidth=2;" vertex="1" parent="1">
          <mxGeometry x="445" y="480" width="120" height="80" as="geometry" />
        </mxCell>
        <mxCell id="J7Bs5bswWB7c_GY-_gEm-33" value="" style="edgeStyle=orthogonalEdgeStyle;rounded=0;orthogonalLoop=1;jettySize=auto;html=1;" edge="1" parent="1" source="J7Bs5bswWB7c_GY-_gEm-29" target="J7Bs5bswWB7c_GY-_gEm-32">
          <mxGeometry relative="1" as="geometry" />
        </mxCell>
        <mxCell id="J7Bs5bswWB7c_GY-_gEm-29" value="Capturar y Apartar cantidades" style="whiteSpace=wrap;html=1;rounded=1;strokeWidth=2;" vertex="1" parent="1">
          <mxGeometry x="445" y="600" width="120" height="60" as="geometry" />
        </mxCell>
        <mxCell id="J7Bs5bswWB7c_GY-_gEm-31" value="fin" style="strokeWidth=2;html=1;shape=mxgraph.flowchart.terminator;whiteSpace=wrap;" vertex="1" parent="1">
          <mxGeometry x="20" y="680" width="100" height="60" as="geometry" />
        </mxCell>
        <mxCell id="J7Bs5bswWB7c_GY-_gEm-38" value="" style="edgeStyle=orthogonalEdgeStyle;rounded=0;orthogonalLoop=1;jettySize=auto;html=1;" edge="1" parent="1" source="J7Bs5bswWB7c_GY-_gEm-32" target="J7Bs5bswWB7c_GY-_gEm-36">
          <mxGeometry relative="1" as="geometry" />
        </mxCell>
        <mxCell id="J7Bs5bswWB7c_GY-_gEm-32" value="Surtir(descontar en inventario y surtir en kardex)" style="whiteSpace=wrap;html=1;rounded=1;strokeWidth=2;" vertex="1" parent="1">
          <mxGeometry x="445" y="690" width="120" height="60" as="geometry" />
        </mxCell>
        <mxCell id="J7Bs5bswWB7c_GY-_gEm-34" value="PDF con surtimiento en 0, lote &quot;-&quot; y caducidad 2034" style="shape=document;whiteSpace=wrap;html=1;boundedLbl=1;rounded=1;strokeWidth=2;" vertex="1" parent="1">
          <mxGeometry x="645" y="365" width="120" height="80" as="geometry" />
        </mxCell>
        <mxCell id="J7Bs5bswWB7c_GY-_gEm-36" value="PDF con surtimiento cantidad correspondiente, lote correspondiente, caducidad (primera caducidad)" style="shape=document;whiteSpace=wrap;html=1;boundedLbl=1;rounded=1;strokeWidth=2;" vertex="1" parent="1">
          <mxGeometry x="417.5" y="810" width="175" height="80" as="geometry" />
        </mxCell>
        <mxCell id="J7Bs5bswWB7c_GY-_gEm-37" style="edgeStyle=orthogonalEdgeStyle;rounded=0;orthogonalLoop=1;jettySize=auto;html=1;exitX=0;exitY=0.75;exitDx=0;exitDy=0;exitPerimeter=0;entryX=0;entryY=0.5;entryDx=0;entryDy=0;entryPerimeter=0;" edge="1" parent="1" source="J7Bs5bswWB7c_GY-_gEm-13" target="J7Bs5bswWB7c_GY-_gEm-31">
          <mxGeometry relative="1" as="geometry" />
        </mxCell>
        <mxCell id="J7Bs5bswWB7c_GY-_gEm-39" style="edgeStyle=orthogonalEdgeStyle;rounded=0;orthogonalLoop=1;jettySize=auto;html=1;exitX=0;exitY=0.5;exitDx=0;exitDy=0;entryX=1;entryY=0.5;entryDx=0;entryDy=0;entryPerimeter=0;" edge="1" parent="1" source="J7Bs5bswWB7c_GY-_gEm-36" target="J7Bs5bswWB7c_GY-_gEm-31">
          <mxGeometry relative="1" as="geometry" />
        </mxCell>
        <mxCell id="J7Bs5bswWB7c_GY-_gEm-40" value="Excel" style="text;html=1;align=center;verticalAlign=middle;resizable=0;points=[];autosize=1;strokeColor=none;fillColor=none;" vertex="1" parent="1">
          <mxGeometry x="20" y="140" width="50" height="30" as="geometry" />
        </mxCell>
      </root>
    </mxGraphModel>
  </diagram>
</mxfile>
